<?xml version="1.0" standalone="no"?>
<!DOCTYPE svg PUBLIC "-//W3C//DTD SVG 20010904//EN"
 "http://www.w3.org/TR/2001/REC-SVG-20010904/DTD/svg10.dtd">
<svg version="1.0" xmlns="http://www.w3.org/2000/svg"
 width="905.000000pt" height="1280.000000pt" viewBox="0 0 905.000000 1280.000000"
 preserveAspectRatio="xMidYMid meet">

<g transform="translate(0.000000,1280.000000) scale(0.100000,-0.100000)"
fill="#ffffff" stroke="none">
<path d="M4566 11129 c-10 -21 -20 -38 -24 -38 -20 3 -32 -2 -27 -11 3 -5 1
-10 -5 -10 -7 0 -10 -6 -7 -13 4 -10 -2 -13 -18 -10 -21 4 -22 1 -22 -39 0
-23 -4 -74 -8 -113 -6 -54 -5 -67 4 -59 14 13 19 34 20 84 1 38 16 69 27 57 4
-4 3 -23 -3 -41 -9 -30 -8 -35 5 -38 16 -3 66 36 68 53 1 5 2 14 3 19 0 6 9
10 19 11 14 0 14 2 -3 9 -12 5 -15 9 -5 9 10 1 11 4 3 12 -6 6 -10 18 -7 25
14 47 12 45 34 27 21 -18 27 -43 10 -43 -5 0 -10 -9 -10 -20 0 -11 6 -19 13
-17 7 1 12 -9 12 -28 0 -23 4 -29 17 -27 13 2 16 -2 11 -15 -4 -13 -3 -15 5
-8 6 6 13 26 16 45 3 19 8 54 12 77 l6 42 -38 3 c-37 3 -40 5 -48 45 -13 57
-38 62 -60 12z m-5 -126 c-9 -16 -10 -16 -11 -1 0 9 3 25 7 35 7 16 8 17 11 1
2 -10 -1 -25 -7 -35z"/>
<path d="M4802 11067 c-7 -8 -8 -17 -4 -22 4 -4 0 -6 -8 -3 -11 4 -18 -9 -27
-46 -17 -72 -17 -97 3 -89 8 3 14 15 13 27 0 11 0 24 1 29 5 15 8 27 9 42 0 8
7 12 15 9 9 -3 15 4 18 20 7 33 -5 52 -20 33z"/>
<path d="M4725 11050 c-3 -5 -1 -10 4 -10 6 0 11 5 11 10 0 6 -2 10 -4 10 -3
0 -8 -4 -11 -10z"/>
<path d="M4602 11041 c4 -13 18 -16 19 -4 0 4 -5 9 -11 12 -7 2 -11 -2 -8 -8z"/>
<path d="M4862 10974 c-2 -32 0 -35 13 -24 17 14 17 51 0 57 -5 1 -11 -13 -13
-33z"/>
<path d="M4425 10915 c-4 -25 -5 -48 -2 -51 3 -3 9 15 12 41 4 25 5 48 2 51
-3 3 -9 -15 -12 -41z"/>
<path d="M4342 10610 c0 -19 2 -27 5 -17 2 9 2 25 0 35 -3 9 -5 1 -5 -18z"/>
<path d="M4597 10615 c-11 -44 -28 -188 -22 -193 2 -2 7 9 10 24 3 16 11 47
16 69 6 22 9 61 7 85 -3 42 -4 43 -11 15z"/>
<path d="M4286 10146 c-19 -76 -19 -76 -7 -76 10 0 37 128 29 136 -3 3 -13
-24 -22 -60z"/>
<path d="M4367 10097 c-11 -29 -9 -53 4 -40 6 6 9 21 7 34 -3 21 -4 22 -11 6z"/>
<path d="M4552 10020 c0 -14 2 -19 5 -12 2 6 2 18 0 25 -3 6 -5 1 -5 -13z"/>
<path d="M4265 9830 c-4 -23 -5 -43 -2 -46 2 -3 7 14 11 37 4 23 5 44 2 46 -2
2 -7 -14 -11 -37z"/>
<path d="M4229 9458 c-4 -16 -10 -172 -6 -168 6 6 17 170 11 170 -2 0 -4 -1
-5 -2z"/>
<path d="M4199 8778 c0 -13 -2 -32 -4 -43 -11 -61 -18 -111 -18 -122 0 -7 1
-25 2 -40 2 -27 2 -27 11 -5 11 27 26 232 16 232 -3 0 -6 -10 -7 -22z"/>
<path d="M4281 8587 c1 -42 6 -77 11 -77 8 0 0 140 -9 150 -2 2 -3 -30 -2 -73z"/>
<path d="M4192 8404 c-1 -17 -4 -60 -7 -95 -4 -51 -3 -59 5 -40 6 14 9 57 7
95 -1 39 -4 57 -5 40z"/>
<path d="M4186 7924 c-8 -62 -7 -124 4 -149 6 -13 9 18 9 88 1 59 -1 107 -3
107 -2 0 -6 -21 -10 -46z"/>
<path d="M4503 7410 c0 -30 2 -43 4 -27 2 15 2 39 0 55 -2 15 -4 2 -4 -28z"/>
<path d="M4508 7303 c5 -76 10 -83 11 -15 0 34 -2 62 -7 62 -4 0 -6 -21 -4
-47z"/>
<path d="M4233 7235 c0 -33 2 -45 4 -27 2 18 2 45 0 60 -2 15 -4 0 -4 -33z"/>
<path d="M4310 7159 c0 -35 5 -71 10 -79 6 -9 8 10 6 58 -3 91 -16 107 -16 21z"/>
<path d="M4519 7215 c-3 -5 0 -37 7 -70 6 -33 12 -49 12 -35 1 41 -13 116 -19
105z"/>
<path d="M4222 7150 c0 -14 2 -19 5 -12 2 6 2 18 0 25 -3 6 -5 1 -5 -13z"/>
<path d="M4346 6087 c2 -64 6 -122 10 -128 5 -9 15 -65 54 -308 5 -29 13 -65
19 -80 5 -14 15 -46 21 -70 6 -23 14 -41 17 -38 8 8 -19 157 -27 152 -13 -8
-20 34 -26 150 -3 61 -14 153 -24 205 -11 52 -22 117 -26 145 -13 99 -21 87
-18 -28z"/>
<path d="M4612 6140 c0 -14 4 -38 8 -55 l8 -30 0 30 c0 17 -4 41 -8 55 l-8 25
0 -25z"/>
<path d="M4508 5200 c2 -22 8 -43 13 -46 11 -6 11 11 3 55 -9 45 -20 38 -16
-9z"/>
<path d="M4761 4490 c0 -14 4 -45 10 -70 12 -54 70 -202 76 -196 3 2 -13 60
-35 128 -22 67 -42 132 -45 143 -4 16 -5 15 -6 -5z"/>
<path d="M4680 4465 c0 -5 5 -17 10 -25 5 -8 10 -10 10 -5 0 6 -5 17 -10 25
-5 8 -10 11 -10 5z"/>
<path d="M4710 4355 c0 -5 5 -28 12 -50 6 -22 11 -50 10 -62 -1 -12 3 -25 8
-28 5 -3 7 4 5 15 -2 11 0 20 5 20 5 0 5 13 0 28 -9 34 -39 91 -40 77z"/>
<path d="M4981 3465 c-1 -36 24 -110 38 -113 16 -3 11 25 -18 89 -12 28 -20
36 -20 24z"/>
<path d="M5071 3234 c-1 -11 7 -45 17 -75 11 -30 29 -94 42 -144 22 -88 83
-200 102 -189 5 3 17 -14 27 -38 11 -24 20 -39 20 -35 1 5 -25 72 -58 150 -32
78 -66 163 -76 189 -10 26 -21 45 -26 43 -8 -5 -21 26 -18 41 2 5 -5 25 -13
44 -13 27 -17 30 -17 14z"/>
<path d="M5270 2730 c0 -27 64 -200 74 -200 7 0 27 -33 45 -72 18 -40 35 -68
38 -61 2 7 -24 70 -60 141 -59 119 -83 176 -79 195 1 4 -2 7 -8 7 -5 0 -10 -4
-10 -10z"/>
<path d="M5830 2198 c0 -9 5 -20 10 -23 13 -8 13 5 0 25 -8 13 -10 13 -10 -2z"/>
<path d="M6252 1980 c6 -14 12 -31 13 -39 0 -14 35 -26 35 -12 0 4 -14 22 -30
41 -24 27 -28 29 -18 10z"/>
<path d="M5953 1938 c3 -9 1 -19 -6 -22 -7 -2 -4 -5 7 -5 15 -1 16 -4 7 -15
-10 -12 -9 -20 4 -40 10 -14 14 -33 10 -45 -4 -13 4 -31 27 -58 50 -58 58 -65
58 -55 0 6 -18 30 -40 54 -22 23 -40 46 -40 51 0 13 40 -18 46 -35 3 -10 9
-18 13 -18 9 0 35 -51 33 -62 -1 -5 3 -8 8 -8 6 0 10 -7 10 -16 0 -9 -5 -12
-11 -8 -7 4 -10 1 -7 -7 3 -8 10 -13 16 -12 5 1 8 -7 4 -19 -4 -16 -2 -19 8
-13 9 5 11 4 6 -3 -12 -20 -22 -14 -55 38 -18 28 -37 48 -42 45 -5 -4 -6 1 -3
10 5 11 2 14 -10 9 -18 -7 -20 -16 -7 -29 5 -6 23 -37 40 -70 30 -58 40 -85
21 -55 -8 12 -12 13 -19 1 -6 -10 -13 -10 -28 -3 -14 8 -23 8 -31 0 -9 -9 -12
-9 -12 0 0 15 -51 62 -61 56 -4 -2 -11 1 -15 7 -4 7 -3 9 3 6 6 -4 14 0 17 9
3 8 2 13 -2 10 -5 -3 -17 9 -27 27 -10 18 -25 38 -32 45 -7 7 -19 23 -28 34
-8 12 -18 18 -22 14 -5 -5 -2 -11 5 -13 6 -3 10 -9 6 -14 -3 -5 2 -9 12 -9 14
0 14 -3 4 -15 -11 -13 -10 -14 1 -10 15 6 53 -47 42 -59 -3 -3 -1 -6 6 -6 7 0
10 -4 7 -9 -3 -5 2 -19 12 -32 10 -13 30 -44 44 -69 14 -25 36 -56 47 -69 12
-13 21 -28 21 -32 0 -5 28 -41 63 -81 34 -40 70 -85 79 -99 9 -15 87 -103 172
-197 183 -200 421 -402 477 -402 8 0 38 7 66 15 45 14 54 21 73 60 12 25 19
53 16 61 -4 10 3 25 20 41 20 18 24 30 20 49 -5 20 -1 28 22 41 46 27 54 61
30 140 -18 60 -28 75 -85 128 -121 112 -198 190 -265 265 -82 93 -254 295
-288 337 -18 24 -28 29 -37 21 -10 -8 -12 -7 -7 6 8 20 -3 21 -22 2 -16 -16
-19 -30 -5 -22 5 3 11 0 14 -7 4 -10 -2 -13 -20 -9 -24 5 -25 3 -19 -24 l7
-29 -25 34 c-28 37 -35 23 -11 -19 22 -39 19 -57 -5 -35 -18 16 -20 16 -15 2
6 -14 3 -14 -19 -4 -14 7 -26 15 -26 20 0 4 -4 7 -9 7 -5 0 -3 -14 6 -31 16
-32 9 -57 -8 -27 -5 9 -16 23 -24 31 -7 8 -24 30 -37 48 -13 19 -27 37 -33 39
-5 3 -9 9 -7 13 1 5 -2 6 -8 2 -5 -3 -22 13 -37 35 -37 54 -106 130 -100 108z
m302 -277 c-6 -5 -25 10 -25 20 0 5 6 4 14 -3 8 -7 12 -15 11 -17z m-11 -27
c3 -8 2 -12 -4 -9 -6 3 -10 10 -10 16 0 14 7 11 14 -7z m-234 -128 c0 -6 -5
-3 -11 7 -6 9 -14 15 -20 12 -5 -3 -6 1 -2 11 6 16 7 15 20 -2 7 -10 13 -23
13 -28z m11 -29 c-10 -9 -11 -8 -5 6 3 10 9 15 12 12 3 -3 0 -11 -7 -18z"/>
<path d="M6309 1848 c-11 -8 -10 -9 5 -4 13 5 17 2 12 -9 -6 -17 2 -19 23 -6
11 7 10 11 -6 19 -13 7 -24 7 -34 0z"/>
<path d="M5930 1835 c0 -5 5 -17 10 -25 5 -8 10 -10 10 -5 0 6 -5 17 -10 25
-5 8 -10 11 -10 5z"/>
<path d="M6066 1827 c3 -10 9 -15 12 -12 3 3 0 11 -7 18 -10 9 -11 8 -5 -6z"/>
<path d="M5964 1757 c3 -10 6 -25 6 -33 0 -9 5 -12 10 -9 14 9 13 18 -6 41
-14 17 -15 17 -10 1z"/>
</g>
</svg>
